<?xml version="1.0" standalone="no"?>
<!DOCTYPE svg PUBLIC "-//W3C//DTD SVG 1.1//EN" "http://www.w3.org/Graphics/SVG/1.1/DTD/svg11.dtd" >
<svg xmlns="http://www.w3.org/2000/svg" xmlns:xlink="http://www.w3.org/1999/xlink" version="1.1">
<metadata>
Created by FontForge 20170731 at Sun Apr 28 16:14:31 2013
 By Aleksey,,,
Typeface (c) (your company). 2013. All Rights Reserved
</metadata>
<defs>
<font id="Unown" horiz-adv-x="898" >
  <font-face 
    font-family="Unown"
    font-weight="400"
    font-stretch="normal"
    units-per-em="2048"
    panose-1="2 0 5 0 0 0 0 0 0 0"
    ascent="1638"
    descent="-410"
    x-height="1018"
    cap-height="1436"
    bbox="80 -7 2028 1440"
    underline-thickness="150"
    underline-position="-442"
    unicode-range="U+0021-007A"
  />
<missing-glyph horiz-adv-x="1024" 
d="M100 0v1434h824v-1434h-824zM150 50h724v1334h-724v-1334zM325 1148q31 28 58 43q53 30 112 30q92 0 148 -47.5t56 -127.5q0 -49 -23 -98.5t-87 -129.5q-63 -80 -99 -132t-36 -99q0 -38 24 -133h-32q-35 97 -35 148q0 76 81.5 218t81.5 217q0 57 -33 90t-91 33
q-38 0 -69 -17q-26 -15 -56 -40v45zM389 334l57 58q11 10 20 10q10 0 22 -11l56 -60q9 -11 9 -20q0 -11 -10 -22l-56 -62q-14 -14 -21 -14q-11 0 -20 10l-61 71q-7 9 -7 18q0 10 11 22z" />
    <glyph glyph-name=".notdef" horiz-adv-x="1024" 
d="M100 0v1434h824v-1434h-824zM150 50h724v1334h-724v-1334zM325 1148q31 28 58 43q53 30 112 30q92 0 148 -47.5t56 -127.5q0 -49 -23 -98.5t-87 -129.5q-63 -80 -99 -132t-36 -99q0 -38 24 -133h-32q-35 97 -35 148q0 76 81.5 218t81.5 217q0 57 -33 90t-91 33
q-38 0 -69 -17q-26 -15 -56 -40v45zM389 334l57 58q11 10 20 10q10 0 22 -11l56 -60q9 -11 9 -20q0 -11 -10 -22l-56 -62q-14 -14 -21 -14q-11 0 -20 10l-61 71q-7 9 -7 18q0 10 11 22z" />
    <glyph glyph-name=".null" horiz-adv-x="0" 
 />
    <glyph glyph-name="nonmarkingreturn" horiz-adv-x="682" 
 />
    <glyph glyph-name="exclam" unicode="!" 
d="M410 1414h26q26 -4 26 -26v-700q0 -14 169 -78q143 -141 143 -273q-57 -337 -312 -337h-65q-233 0 -298 311v13q0 254 259 338h13v674q9 78 39 78zM190 337v-13q42 -233 207 -233h78q208 57 208 246h-182q0 -78 -78 -78h-13q-52 26 -52 78h-168z" />
    <glyph glyph-name="question" unicode="?" 
d="M393 1429h13q256 0 353 -157q39 -88 39 -143v-26q0 -211 -157 -301q-130 -23 -130 -104v-39q209 0 274 -300v-53q0 -250 -340 -313q-339 65 -339 339q65 340 313 340v26q0 143 222 209q66 90 66 170v39q0 235 -340 235l-13 26v13q0 19 39 39zM628 332h-104q0 -38 -52 -65
h-53q-35 0 -39 65h-183v-13q0 -199 275 -235q166 0 221 235v26z" />
    <glyph glyph-name="A" unicode="A" horiz-adv-x="997" 
d="M525 1436h28q32 0 69 -220q233 -95 233 -288v-83q0 -114 -123 -247q96 -497 96 -564l-41 -27q-83 41 -83 261h-14q-106 -41 -192 -41h-14q-90 0 -192 69q-68 -289 -96 -289h-28q-20 0 -41 41l151 564q-124 105 -124 233v69q0 218 289 330q50 192 82 192zM251 928v-83
q62 -220 220 -220h68q171 0 234 261q0 224 -289 261q-233 -68 -233 -219zM484 955h41q22 0 55 -55v-41q-27 -55 -82 -55q-69 19 -69 96q0 22 55 55zM361 543q-42 -116 -42 -151q99 -69 152 -69h68q32 0 138 55q-14 99 -42 179q-50 -28 -110 -28h-41q-82 14 -123 14z" />
    <glyph glyph-name="B" unicode="B" horiz-adv-x="1202" 
d="M599 1430q319 -66 319 -293h67q80 -8 80 -39v-27q0 -27 -147 -40q0 -196 -279 -293q-13 0 -13 -13v-40q258 0 306 -359q-82 -319 -320 -319h-53q-232 0 -319 293h-93q-19 0 -40 39v27q4 27 27 27h106q0 196 293 306v26l-173 93q-120 114 -120 280v13q0 269 359 319z
M333 1098v-27q0 -196 253 -239q225 0 252 279q0 174 -252 226h-14q-239 -44 -239 -239zM586 1164q60 -26 66 -53v-53q0 -19 -40 -40h-53q-21 0 -53 53q0 93 80 93zM333 379v-40q50 -239 213 -239h53q196 0 239 253q-49 252 -252 252q-253 -51 -253 -226z" />
    <glyph glyph-name="C" unicode="C" horiz-adv-x="1499" 
d="M783 1436q458 0 592 -553q14 -72 14 -119l-40 -26h-224l-105 -185q-121 -105 -224 -105h-53q-263 0 -316 356q0 263 342 329q241 0 343 -277v-26h184q-76 322 -237 435q-137 79 -290 79q-410 0 -527 -395q-10 -132 -26 -132q60 -593 553 -593q53 -7 53 -40v-158
q0 -26 -26 -26h-40q-26 0 -26 26v106h-13q-492 0 -580 645v66q0 397 408 553q48 27 238 40zM519 790q43 -250 237 -250h27q194 0 237 237v13q-40 251 -251 251q-250 -45 -250 -251zM743 856h53q27 -5 52 -66q0 -79 -92 -79q-20 0 -53 53v53q0 19 40 39z" />
    <glyph glyph-name="D" unicode="D" horiz-adv-x="1301" 
d="M465 1429h44q531 0 667 -533q14 -15 14 -119v-74q0 -584 -740 -696h-15q-30 0 -30 30v29q0 39 282 89q400 185 400 533v104q0 447 -548 533v-222q250 0 325 -341v-74q-75 -340 -340 -340h-74q-341 75 -341 340v74q75 341 326 341v296q5 30 30 30zM198 718
q61 -267 267 -267h44q252 42 252 252v74q0 164 -267 237q-296 -58 -296 -296zM465 807h44q23 0 59 -59v-45q0 -23 -59 -59h-44q-24 0 -60 59v45q0 23 60 59z" />
    <glyph glyph-name="E" unicode="E" horiz-adv-x="1400" 
d="M1143 1436q57 -22 57 -43v-29q0 -29 -28 -29h-43q-318 0 -388 -229v-29q187 0 344 -302h187q29 -4 29 -28v-29q0 -21 -43 -43h-187q-84 -345 -330 -345q0 -198 416 -229q43 0 43 -29v-29q0 -21 -43 -43q-431 0 -531 330q-302 117 -302 345h-172q-21 0 -43 43v29
q4 28 29 28h201q0 182 301 302q0 316 474 359h29zM425 675q0 -183 258 -244h29q259 41 259 258v43q0 189 -273 244q-239 0 -273 -301zM669 775h57q58 -28 58 -86q-20 -72 -101 -72q-22 0 -57 58v57q0 21 43 43z" />
    <glyph glyph-name="F" unicode="F" horiz-adv-x="1450" 
d="M490 1436q228 0 355 -284q83 0 470 -15l28 -42q-157 -257 -327 -441h-14q-161 171 -256 171q0 -66 -228 -128l15 -29v-142l28 14h199q20 0 43 -42v-29q0 -28 -29 -28h-227l-29 -14l15 -29v-156l156 -171v-43q0 -28 -29 -28h-28l-156 142q-10 0 -143 -142h-42
q-29 0 -29 28v29l171 199v441q-210 0 -327 312v57q0 312 384 370zM206 1038q73 -242 241 -242h43q256 41 256 256v29q0 209 -270 255q-236 0 -270 -298zM447 1137h57q57 -28 57 -85q-23 -71 -85 -71q-65 28 -71 57v57q0 20 42 42zM845 1052q0 -54 -28 -142q99 -28 185 -114
q18 0 185 242q-142 14 -214 14h-128z" />
    <glyph glyph-name="G" unicode="G" horiz-adv-x="948" 
d="M484 1436q295 0 346 -192q-28 -41 -116 -218q77 -66 77 -218q0 -262 -384 -346q-90 -82 -90 -90q484 -276 513 -321v-25q0 -26 -26 -26h-38q-552 326 -577 359v26q0 11 141 128v13q-205 77 -205 295q0 145 89 218q-115 218 -115 256v13q89 128 385 128zM202 1295
q0 -25 77 -192q87 51 153 51h52q47 0 166 -51q77 128 77 166q-78 77 -256 77q-130 0 -269 -51zM214 821q39 -244 244 -244q244 42 244 244v12q0 189 -231 231h-26q-188 0 -231 -243zM445 898q90 0 90 -77q-25 -59 -51 -65h-52q-26 6 -51 65q18 52 64 77z" />
    <glyph glyph-name="H" unicode="H" horiz-adv-x="1697" 
d="M979 1432q582 -196 582 -746q0 -403 -522 -671h-30q-30 0 -30 30v30q251 176 299 223q145 154 179 358h-239q0 -248 -373 -313q-260 0 -373 284v29h-254q0 -346 552 -581v-45q0 -30 -29 -30q-216 0 -523 343q-104 187 -104 358q0 492 537 716l30 -45v-29
q-448 -268 -448 -537v-45h224q0 283 388 358h30q358 -88 358 -358h194l30 15q0 203 -254 432l-269 150v29q0 22 45 45zM562 731q44 -283 283 -283h30q194 0 253 268v30q0 219 -283 268q-283 -44 -283 -283zM845 820q89 -30 89 -119q-75 -60 -89 -60q-68 29 -75 60v60
q7 31 75 59z" />
    <glyph glyph-name="I" unicode="I" 
d="M432 1436h26q19 0 40 -39v-353q226 0 287 -326q-61 -326 -287 -326q0 -13 -13 -13l13 -27v-274q0 -67 -40 -78h-26q-26 0 -26 26v353q-218 0 -300 313v13q47 339 274 339q0 13 26 13v353q4 26 26 26zM197 731v-26q45 -235 235 -235h13q248 39 248 248q-43 248 -248 248
q-248 -42 -248 -235zM445 796q60 -25 66 -52v-52q-6 -27 -66 -52q-78 0 -78 91q25 47 78 65z" />
    <glyph glyph-name="J" unicode="J" horiz-adv-x="1146" 
d="M952 1436h43q30 -5 30 -29v-29l-161 -175q54 -88 73 -219q0 -270 -321 -379q-14 0 -14 -15v-350q0 -199 -204 -233h-73q-183 0 -219 248v73q5 29 29 29h29q40 0 59 -190q61 -58 116 -58h44q117 0 117 131v350l-204 117q-117 126 -117 248v58q61 350 379 350
q111 0 248 -87q34 73 146 160zM281 999v-30q46 -262 262 -262h15q277 48 277 277q-48 277 -277 277h-15q-262 -41 -262 -262zM558 1071q67 -28 73 -58v-58q-6 -30 -73 -59q-87 0 -87 103q29 72 87 72z" />
    <glyph glyph-name="K" unicode="K" horiz-adv-x="1195" 
d="M443 1436h13q19 0 39 -39v-349q151 0 285 -220q120 120 233 207h26q18 0 38 -39q0 -17 -271 -272l258 -245v-26q0 -19 -38 -39q-95 59 -246 207h-13q-96 -233 -272 -233v-349q0 -19 -39 -39h-13q-18 0 -38 39v349q-215 0 -285 298v64q66 298 285 298v349q0 19 38 39z
M211 763v-90q0 -148 219 -194h39q220 38 220 220v64q0 144 -233 207q-245 -53 -245 -207zM430 789h39q21 0 52 -52v-38q0 -21 -52 -52h-39q-20 0 -51 52v38q0 21 51 52z" />
    <glyph glyph-name="L" unicode="L" horiz-adv-x="1301" 
d="M182 1436l184 -168q167 61 259 61h15q321 0 367 -397v-30q0 -255 -336 -367q-15 0 -15 -15v-382h15q37 153 275 153h61q198 -52 198 -183v-46q-25 -61 -107 -61h-381q-168 0 -168 229v321q-256 0 -336 381q0 96 91 260q-39 0 -198 183v15q0 35 76 46zM320 932
q67 -290 290 -290q290 51 290 275v61q-70 244 -244 244h-77q-196 0 -259 -290zM625 1024q76 -21 76 -107q0 -24 -61 -61h-61q-22 0 -46 46v61q31 61 92 61zM793 123v-15h15q51 0 77 15q82 -15 137 -15h30q31 0 31 30q-58 46 -137 46q-153 -19 -153 -61z" />
    <glyph glyph-name="M" unicode="M" horiz-adv-x="2001" 
d="M1011 1438q329 0 593 -216q0 23 144 144h36q26 0 54 -54v-18l-162 -180q198 -252 198 -557q0 -323 -216 -521h-36q-25 0 -53 54q179 233 179 485q-122 737 -683 737v-306l270 -161q126 -154 126 -360q0 -334 -450 -431q-485 51 -485 485q83 431 414 431v342
q-466 0 -701 -683v-90q0 -179 144 -503l-54 -36h-36q-91 0 -180 539q0 252 198 539v18q-144 138 -144 216q58 36 90 36q0 -23 144 -144h17q256 234 593 234zM652 521q52 -341 342 -341q341 54 341 341q-54 342 -341 342q-342 -54 -342 -342zM994 629q53 0 107 -108
q0 -54 -107 -108q-54 0 -108 108q0 54 108 108z" />
    <glyph glyph-name="N" unicode="N" horiz-adv-x="1803" 
d="M1663 1436q33 0 33 -49q-114 -1256 -147 -1256l-33 -17q-73 46 -342 278q-77 -49 -245 -82q-424 82 -424 408v49q0 69 49 179l-213 164l-130 -1094l-33 -16h-16q-24 0 -49 49q114 1240 147 1240h49q97 -69 310 -261q107 131 310 131h33q319 0 391 -425q0 -118 -98 -261
l212 -179q115 1073 147 1142h49zM619 751v-49q0 -210 310 -278q260 0 310 327q0 237 -310 310q-310 -66 -310 -310zM945 832q66 -24 66 -49v-81q0 -24 -49 -49h-66q-65 32 -65 98q23 81 114 81z" />
    <glyph glyph-name="O" unicode="O" horiz-adv-x="1669" 
d="M824 1436q428 0 652 -421q73 -157 73 -304q0 -500 -566 -696q-18 0 -145 -15q-515 0 -710 566q0 60 -15 159q0 479 537 682zM215 711q0 -420 478 -595l87 -14v246q-245 0 -319 334v72q74 334 334 334h72q334 -74 334 -334v-72q-74 -334 -319 -334v-246q290 0 522 377
q43 177 43 246q0 429 -493 595l-130 14q-425 0 -595 -493zM548 725q66 -290 276 -290q275 60 275 232v102q0 166 -246 217h-44q-261 -58 -261 -261zM809 798h44q22 0 58 -58v-44q0 -22 -58 -58h-44q-22 0 -58 58v44q0 22 58 58z" />
    <glyph glyph-name="P" unicode="P" horiz-adv-x="1146" 
d="M165 1436h15l212 -197q122 76 257 76q314 0 378 -393q0 -343 -408 -393q-128 7 -257 106v-605q0 -30 -30 -30h-46q-30 0 -30 30v650q0 122 -15 287q30 112 76 197q-22 0 -197 196v31q0 21 45 45zM347 922q45 -287 287 -287q287 45 287 287q-45 287 -287 287
q-287 -45 -287 -287zM634 1013q45 0 91 -91q0 -45 -91 -91q-45 0 -91 91q0 45 91 91z" />
    <glyph glyph-name="Q" unicode="Q" horiz-adv-x="1648" 
d="M616 1436h19q460 -93 460 -460v-19q0 -148 -96 -344l268 -249q0 25 172 172h58q38 -6 38 -38v-38l-172 -192l172 -191v-20q0 -57 -77 -57q-31 0 -574 536q-59 -57 -268 -96q-517 83 -517 498q0 438 517 498zM233 938q71 -364 364 -364q364 69 364 345v38
q-55 345 -345 345h-38q-276 0 -345 -364zM616 1053q96 -31 96 -115q-37 -87 -77 -96h-76q-28 0 -58 58v76q38 77 115 77z" />
    <glyph glyph-name="R" unicode="R" horiz-adv-x="1202" 
d="M510 1436q422 -73 422 -406q-16 -131 -94 -281q234 -194 234 -281q-51 -31 -78 -31q0 20 -250 250q-107 -63 -187 -63h-31q-166 0 -297 110v-703q0 -31 -31 -31h-31q-47 16 -47 94v967q0 285 390 375zM229 1046v-63q71 -249 250 -249h62q230 0 281 296q0 238 -312 297
q-281 -65 -281 -281zM495 1108h62q47 -15 47 -93v-16q0 -24 -63 -62q-109 0 -109 109q0 24 63 62z" />
    <glyph glyph-name="S" unicode="S" horiz-adv-x="1252" 
d="M607 1436h25q37 -12 37 -75v-75q-32 -45 -399 -225l-50 -50l162 -99q105 112 213 112h62q245 0 300 -325l-13 -112q187 -82 187 -162q-90 -103 -462 -325q0 -100 -25 -100h-25q-37 12 -37 75v25q0 87 337 250l100 87q-71 75 -137 75q0 -81 -250 -137q-278 0 -325 337
q0 32 25 125q-171 96 -212 162q0 116 462 312v100q4 25 25 25zM395 712v-13q41 -237 237 -237q237 46 237 237q-39 238 -200 238h-74q-157 0 -200 -225zM644 774q50 -19 50 -37v-63q0 -18 -37 -37h-50q-25 0 -50 75q17 62 87 62z" />
    <glyph glyph-name="T" unicode="T" horiz-adv-x="1378" 
d="M150 1440h1063q35 -5 35 -34v-52q0 -34 -35 -34h-480v-446q377 -98 377 -377v-137q0 -261 -394 -360h-86q-394 87 -394 394v86q93 394 377 394v446h-463q-24 0 -51 51v18q0 24 51 51zM356 463v-52q52 -291 292 -291h85q190 0 275 309q-73 342 -326 342
q-326 -56 -326 -308zM648 531h51q27 0 69 -68v-52q0 -26 -69 -68h-51q-27 0 -69 68v52q0 27 69 68z" />
    <glyph glyph-name="U" unicode="U" horiz-adv-x="2150" 
d="M1015 1436h92q354 0 442 -479q-22 -191 -129 -313l258 -239q166 178 239 589q6 37 37 37h19q27 0 55 -74q0 -607 -663 -902q-145 -37 -295 -55q-664 0 -920 700q-37 72 -37 202v74q0 26 55 55h19q48 0 92 -350l129 -239q26 0 257 258q-73 126 -73 221v92q99 423 423 423z
M721 1013v-74q68 -331 331 -331q300 0 368 368q-76 331 -331 331h-55q-313 -65 -313 -294zM1034 1068h55q29 0 74 -74v-55q0 -29 -74 -74h-55q-29 0 -74 74q0 99 74 129zM739 589l-221 -239q267 -221 479 -221v368q-53 0 -258 92zM1126 497v-350h55q127 0 387 148v18
q-205 239 -258 239q-95 -55 -184 -55z" />
    <glyph glyph-name="V" unicode="V" horiz-adv-x="1351" 
d="M1176 1436l28 -42v-28q0 -20 -155 -155q0 -11 14 -85q0 -151 -267 -450q155 -137 155 -324q0 -299 -380 -352q-236 0 -338 282q0 10 -14 84q0 163 168 324q-237 271 -267 464q0 186 465 240q144 0 408 -113q127 155 183 155zM219 1154q14 -126 267 -436l70 14h43l98 -14
q268 286 268 422q0 99 -380 155q-366 -50 -366 -141zM317 366q0 -239 296 -267q239 73 239 239v42q-40 254 -253 254h-28q-207 0 -254 -268zM599 451q70 -23 70 -85q-27 -64 -56 -70h-57q-20 0 -42 42v56q28 57 85 57z" />
    <glyph glyph-name="W" unicode="W" horiz-adv-x="1754" 
d="M863 1436h33q33 -5 33 -33v-561q148 0 297 -165q236 0 280 396q0 82 33 82h34q12 0 49 -49q-64 -545 -347 -545q33 -84 33 -132q-76 -429 -396 -429h-82q-297 0 -380 396v50l17 115q-347 84 -347 561l50 33h16q43 0 99 -330q110 -148 198 -148h33q174 165 297 165v544
q0 24 50 50zM566 462v-82q0 -192 297 -281q275 0 330 347q0 219 -314 297q-313 -71 -313 -281zM846 512h17q99 -11 99 -50v-66q0 -26 -66 -66q-116 0 -116 99q32 75 66 83z" />
    <glyph glyph-name="X" unicode="X" horiz-adv-x="1598" 
d="M130 1436h57l342 -323q146 95 303 95q121 0 285 -95q0 24 304 304h57q38 -6 38 -38v-38l-304 -323q95 -114 95 -303v-57q0 -116 -95 -247q24 0 304 -304v-19q0 -27 -57 -57h-38l-304 285q-159 -95 -303 -95q-84 0 -323 95q0 -24 -323 -323h-38q-38 0 -38 38v57l323 342
q-76 130 -76 228v113q0 54 76 266q-24 0 -323 323v38q6 38 38 38zM453 696q98 -342 342 -342h19q360 60 360 304v113q0 233 -342 304h-18q-297 0 -361 -379zM776 809h94q57 -19 57 -113q-28 -76 -57 -76h-94q-28 0 -57 57v19q11 113 57 113z" />
    <glyph glyph-name="Y" unicode="Y" horiz-adv-x="1174" 
d="M157 1436l245 -202q99 58 173 58h58q188 -44 202 -44q0 20 173 174h15q20 0 43 -44v-14l-173 -188q86 -121 86 -259v-29q-68 -332 -332 -332v-318q0 -133 202 -158v-44q0 -20 -43 -43h-14q-130 0 -202 115q-151 -101 -202 -101h-29q-29 0 -29 29v29q216 135 216 159v332
q-247 0 -317 375q18 129 86 231q-17 0 -216 216q0 23 58 58zM330 917q53 -275 274 -275q274 48 274 260v58q-65 231 -231 231h-57q-213 0 -260 -274zM618 1003q73 -20 73 -101q0 -22 -58 -58h-58q-43 15 -43 87v14q29 58 86 58z" />
    <glyph glyph-name="Z" unicode="Z" horiz-adv-x="997" 
d="M144 1436h15q285 0 692 -586q30 -128 30 -151q-76 -375 -376 -375h-45q209 -226 315 -226q30 15 46 15l30 -45v-30q0 -26 -76 -45q-232 0 -661 571l-15 151v30q0 294 406 360q-221 241 -406 241v45q0 22 45 45zM204 745v-76q0 -174 271 -255q250 0 300 316
q0 199 -285 270q-286 -58 -286 -255zM460 790h15q90 -10 90 -45v-61q0 -23 -60 -60q-105 0 -105 91q29 68 60 75z" />
    <glyph glyph-name="a" unicode="a" horiz-adv-x="799" 
d="M430 1020h20q22 0 49 -156q165 -67 165 -204v-59q0 -81 -87 -175q68 -352 68 -400l-30 -19q-58 29 -58 185h-10q-75 -29 -136 -29h-10q-64 0 -136 49q-48 -205 -68 -205h-20q-14 0 -29 29l107 400q-88 74 -88 165v49q0 154 205 234q36 136 58 136zM236 660v-59
q44 -156 155 -156h49q121 0 166 185q0 159 -205 185q-165 -48 -165 -155zM401 679h29q16 0 39 -39v-29q-19 -39 -58 -39q-49 13 -49 68q0 15 39 39zM314 387q-30 -83 -30 -107q70 -49 107 -49h49q23 0 98 39q-10 70 -30 127q-35 -20 -78 -20h-29q-58 10 -87 10z" />
    <glyph glyph-name="b" unicode="b" 
d="M444 1025q228 -48 228 -209h48q57 -6 57 -29v-19q0 -19 -105 -28q0 -141 -199 -210q-10 0 -10 -9v-29q185 0 219 -257q-59 -228 -228 -228h-39q-166 0 -228 209h-66q-14 0 -29 29v19q3 19 19 19h76q0 141 209 219v19l-123 66q-86 82 -86 200v10q0 192 257 228zM254 787
v-19q0 -140 181 -171q161 0 180 200q0 125 -180 161h-10q-171 -31 -171 -171zM435 835q43 -19 47 -38v-38q0 -14 -28 -29h-39q-14 0 -38 38q0 67 58 67zM254 273v-28q35 -171 152 -171h38q140 0 171 180q-35 181 -180 181q-181 -37 -181 -162z" />
    <glyph glyph-name="c" unicode="c" horiz-adv-x="1096" 
d="M560 1018q325 0 420 -392q9 -51 9 -84l-28 -19h-159l-74 -131q-86 -74 -159 -74h-37q-187 0 -225 252q0 186 243 233q171 0 243 -196v-19h131q-54 229 -168 309q-97 56 -206 56q-291 0 -373 -281q-8 -93 -19 -93q42 -420 392 -420q38 -5 38 -28v-112q0 -19 -19 -19h-28
q-19 0 -19 19v74h-9q-348 0 -411 458v47q0 281 290 392q33 19 168 28zM373 560q31 -177 168 -177h19q137 0 168 168v9q-28 178 -178 178q-177 -32 -177 -178zM532 607h37q19 -4 37 -47q0 -56 -65 -56q-15 0 -37 38v37q0 13 28 28z" />
    <glyph glyph-name="d" unicode="d" horiz-adv-x="997" 
d="M367 1018h31q380 0 478 -382q10 -10 10 -85v-53q0 -418 -530 -498h-11q-21 0 -21 21v21q0 28 202 64q286 133 286 382v74q0 320 -392 382v-159q179 0 233 -244v-53q-54 -244 -244 -244h-53q-244 54 -244 244v53q54 244 233 244v212q4 21 22 21zM176 509q44 -191 191 -191
h31q181 30 181 180v53q0 118 -191 170q-212 -42 -212 -212zM367 573h31q17 0 43 -43v-32q0 -16 -43 -42h-31q-17 0 -43 42v32q0 17 43 43z" />
    <glyph glyph-name="e" unicode="e" horiz-adv-x="997" 
d="M814 1019q41 -15 41 -30v-21q0 -20 -21 -20h-30q-226 0 -276 -163v-21q133 0 245 -214h133q20 -3 20 -20v-20q0 -15 -31 -31h-132q-60 -245 -235 -245q0 -140 296 -163q31 0 31 -20v-20q0 -15 -31 -31q-306 0 -377 234q-214 83 -214 245h-122q-15 0 -31 31v20q3 20 20 20
h143q0 130 214 214q0 225 336 255h21zM304 479q0 -130 184 -173h20q184 29 184 183v31q0 134 -194 173q-169 0 -194 -214zM477 550h41q41 -20 41 -61q-14 -51 -71 -51q-16 0 -41 41v41q0 14 30 30z" />
    <glyph glyph-name="f" unicode="f" horiz-adv-x="1096" 
d="M380 1025q163 0 254 -203q58 0 335 -10l20 -31q-112 -183 -233 -314h-11q-115 122 -182 122q0 -47 -163 -92l10 -20v-102l21 11h142q14 0 30 -31v-20q0 -20 -20 -20h-162l-21 -11l10 -20v-111l112 -122v-31q0 -20 -20 -20h-21l-111 101q-7 0 -102 -101h-30q-20 0 -20 20
v21l121 142v314q-150 0 -233 224v40q0 222 274 264zM177 741q53 -173 173 -173h30q183 29 183 183v20q0 150 -193 183q-169 0 -193 -213zM350 812h40q41 -20 41 -61q-17 -51 -61 -51q-46 20 -51 41v40q0 15 31 31zM634 751q0 -38 -21 -101q71 -20 132 -82q14 0 132 173
q-101 10 -152 10h-91z" />
    <glyph glyph-name="g" unicode="g" horiz-adv-x="700" 
d="M374 1025q210 0 247 -137q-20 -29 -83 -156q55 -47 55 -155q0 -188 -274 -248q-64 -58 -64 -64q345 -196 366 -228v-19q0 -18 -19 -18h-27q-394 233 -412 256v19q0 8 101 91v9q-147 56 -147 211q0 104 64 155q-82 156 -82 183v9q64 92 275 92zM172 924q0 -18 55 -137
q63 37 110 37h37q34 0 119 -37q54 92 54 119q-55 55 -183 55q-93 0 -192 -37zM181 586q28 -174 174 -174q174 30 174 174v9q0 135 -165 165h-18q-134 0 -165 -174zM346 641q64 0 64 -55q-18 -42 -36 -46h-37q-19 4 -37 46q13 37 46 55z" />
    <glyph glyph-name="h" unicode="h" horiz-adv-x="1301" 
d="M735 1028q418 -140 418 -535q0 -289 -375 -482h-21q-22 0 -22 21v22q180 126 215 160q104 110 128 257h-171q0 -178 -268 -225q-187 0 -268 204v21h-182q0 -248 396 -417v-33q0 -21 -21 -21q-155 0 -375 246q-75 134 -75 257q0 354 386 515l21 -33v-21
q-321 -192 -321 -386v-32h160q0 204 279 257h21q257 -63 257 -257h140l21 11q0 146 -182 311l-193 107v21q0 16 32 32zM435 525q32 -204 204 -204h21q140 0 182 193v22q0 157 -203 192q-204 -32 -204 -203zM639 589q64 -22 64 -86q-54 -42 -64 -42q-49 20 -54 42v43
q5 22 54 43z" />
    <glyph glyph-name="i" unicode="i" horiz-adv-x="700" 
d="M339 1025h19q13 0 28 -28v-252q161 0 205 -232q-44 -233 -205 -233q0 -10 -10 -10l10 -18v-196q0 -48 -28 -56h-19q-19 0 -19 19v251q-156 0 -214 224v9q34 242 196 242q0 10 18 10v251q3 19 19 19zM171 522v-19q32 -168 168 -168h9q177 28 177 178q-30 177 -177 177
q-177 -30 -177 -168zM348 568q43 -18 47 -37v-37q-4 -19 -47 -37q-56 0 -56 65q18 34 56 46z" />
    <glyph glyph-name="j" unicode="j" 
d="M713 1032h31q21 -3 21 -21v-21l-115 -125q38 -63 52 -157q0 -194 -230 -272q-10 0 -10 -11v-251q0 -143 -147 -167h-52q-131 0 -157 178v52q3 21 21 21h21q28 0 42 -136q44 -42 83 -42h32q83 0 83 94v251l-146 84q-84 90 -84 178v42q44 251 272 251q80 0 178 -63
q25 53 105 115zM232 718v-21q32 -188 188 -188h10q199 35 199 199q-35 198 -199 198h-10q-188 -29 -188 -188zM430 771q48 -21 53 -42v-42q-5 -22 -53 -42q-63 0 -63 73q21 53 63 53z" />
    <glyph glyph-name="k" unicode="k" 
d="M351 1025h9q13 0 28 -28v-249q108 0 203 -157q86 86 166 148h19q13 0 27 -28q0 -12 -194 -194l185 -175v-19q0 -13 -28 -28q-67 43 -175 148h-9q-69 -166 -194 -166v-249q0 -14 -28 -28h-9q-13 0 -28 28v249q-153 0 -203 212v47q47 212 203 212v249q0 14 28 28zM185 545
v-65q0 -106 157 -138h27q157 27 157 157v46q0 102 -166 148q-175 -39 -175 -148zM342 563h27q15 0 37 -37v-27q0 -15 -37 -37h-27q-15 0 -37 37v27q0 15 37 37z" />
    <glyph glyph-name="l" unicode="l" horiz-adv-x="990" 
d="M161 1026l130 -120q120 44 186 44h11q229 0 261 -284v-22q0 -181 -240 -261q-10 0 -10 -11v-273h10q27 109 197 109h43q142 -37 142 -131v-32q-18 -44 -76 -44h-273q-120 0 -120 164v229q-182 0 -240 272q0 68 66 186q-29 0 -142 130v11q0 25 55 33zM259 666
q48 -207 207 -207q207 36 207 196v44q-50 174 -174 174h-55q-140 0 -185 -207zM477 732q54 -16 54 -77q0 -17 -43 -43h-44q-16 0 -33 32v44q22 44 66 44zM597 88v-11h11q36 0 54 11q59 -11 98 -11h22q22 0 22 22q-42 33 -98 33q-109 -14 -109 -44z" />
    <glyph glyph-name="m" unicode="m" horiz-adv-x="1485" 
d="M755 1028q235 0 424 -154q0 16 103 102h26q18 0 38 -38v-13l-115 -128q141 -180 141 -399q0 -231 -154 -372h-26q-18 0 -38 38q128 167 128 347q-87 527 -488 527v-219l193 -115q90 -110 90 -257q0 -239 -322 -308q-347 36 -347 346q60 309 296 309v244q-333 0 -501 -488
v-65q0 -127 103 -359l-39 -26h-26q-64 0 -128 385q0 180 141 386v13q-102 98 -102 154q41 26 64 26q0 -17 103 -103h12q183 167 424 167zM498 373q38 -245 245 -245q244 39 244 245q-39 244 -244 244q-245 -39 -245 -244zM743 450q38 0 77 -77q0 -39 -77 -78q-39 0 -78 78
q0 38 78 77z" />
    <glyph glyph-name="n" unicode="n" horiz-adv-x="1397" 
d="M1220 1025q23 0 23 -35q-82 -897 -105 -897l-23 -11q-53 32 -245 198q-54 -35 -175 -59q-302 59 -302 292v34q0 50 34 129l-151 116l-93 -780l-23 -12h-12q-17 0 -35 35q82 885 105 885h35q69 -49 221 -186q77 93 221 93h24q228 0 279 -303q0 -85 -70 -186l152 -128
q81 765 105 815h35zM474 536v-35q0 -150 221 -198q186 0 222 233q0 169 -222 221q-221 -46 -221 -221zM707 594q47 -17 47 -35v-58q0 -17 -35 -35h-47q-46 23 -46 70q16 58 81 58z" />
    <glyph glyph-name="o" unicode="o" horiz-adv-x="1252" 
d="M619 1022q305 0 464 -299q52 -112 52 -217q0 -356 -403 -496q-13 0 -103 -10q-367 0 -506 403q0 43 -10 113q0 341 382 485zM185 506q0 -299 341 -423l62 -11v176q-175 0 -227 237v52q52 237 237 237h52q237 -52 237 -237v-52q-52 -237 -227 -237v-176q207 0 372 269
q31 126 31 175q0 305 -351 423l-93 11q-302 0 -423 -351zM423 516q47 -206 196 -206q196 42 196 165v72q0 118 -176 155h-30q-186 -42 -186 -186zM609 568h30q17 0 42 -42v-30q0 -17 -42 -42h-30q-17 0 -42 42v30q0 17 42 42z" />
    <glyph glyph-name="p" unicode="p" horiz-adv-x="870" 
d="M152 1025h11l151 -140q87 54 184 54q224 0 269 -281q0 -245 -291 -280q-91 4 -183 75v-431q0 -22 -22 -22h-32q-22 0 -22 22v464q0 87 -11 205q22 79 54 140q-15 0 -140 140v22q0 15 32 32zM282 658q32 -205 205 -205q205 33 205 205q-33 205 -205 205
q-205 -32 -205 -205zM487 723q32 0 65 -65q0 -32 -65 -65q-33 0 -65 65q0 33 65 65z" />
    <glyph glyph-name="q" unicode="q" horiz-adv-x="1252" 
d="M468 1025h14q328 -66 328 -328v-14q0 -106 -69 -246l192 -177q0 17 123 123h41q27 -5 27 -28v-27l-123 -137l123 -136v-14q0 -41 -55 -41q-22 0 -410 383q-42 -41 -191 -69q-369 59 -369 356q0 312 369 355zM195 670q50 -260 259 -260q260 49 260 246v27
q-39 246 -246 246h-27q-197 0 -246 -259zM468 752q68 -23 68 -82q-26 -63 -54 -69h-55q-20 0 -41 41v55q27 55 82 55z" />
    <glyph glyph-name="r" unicode="r" 
d="M399 1025q300 -52 300 -290q-11 -93 -66 -200q167 -139 167 -201q-37 -22 -56 -22q0 14 -178 178q-77 -44 -134 -44h-22q-119 0 -212 78v-502q0 -22 -22 -22h-23q-33 11 -33 67v691q0 203 279 267zM198 746v-44q51 -178 178 -178h45q164 0 200 211q0 170 -222 212
q-201 -46 -201 -201zM387 791h45q33 -11 33 -67v-11q0 -17 -44 -45q-78 0 -78 78q0 18 44 45z" />
    <glyph glyph-name="s" unicode="s" horiz-adv-x="997" 
d="M468 1025h17q27 -9 27 -53v-54q-23 -32 -285 -160l-36 -36l116 -71q75 80 152 80h44q175 0 214 -232l-9 -80q134 -58 134 -116q-65 -73 -330 -232q0 -71 -18 -71h-17q-27 9 -27 53v18q0 63 240 179l72 62q-51 53 -98 53q0 -57 -179 -98q-198 0 -231 241q0 23 18 89
q-123 69 -152 116q0 83 330 223v71q3 18 18 18zM316 508v-9q30 -169 169 -169q170 33 170 169q-28 169 -143 169h-53q-112 0 -143 -160zM494 553q36 -14 36 -27v-45q0 -13 -27 -26h-35q-18 0 -36 53q12 45 62 45z" />
    <glyph glyph-name="t" unicode="t" horiz-adv-x="997" 
d="M136 1025h756q25 -4 25 -24v-37q0 -24 -25 -24h-342v-318q269 -70 269 -268v-98q0 -186 -281 -256h-61q-280 62 -280 281v61q66 280 268 280v318h-329q-18 0 -37 36v12q0 18 37 37zM282 329v-36q37 -208 207 -208h61q136 0 196 220q-52 244 -232 244q-232 -40 -232 -220z
M489 378h37q19 0 49 -49v-36q0 -19 -49 -49h-37q-19 0 -48 49v36q0 20 48 49z" />
    <glyph glyph-name="u" unicode="u" horiz-adv-x="1598" 
d="M755 1022h66q251 0 314 -341q-16 -136 -92 -222l184 -171q118 127 170 420q4 26 26 26h13q20 0 40 -53q0 -432 -472 -642q-103 -26 -210 -39q-472 0 -655 498q-26 51 -26 144v52q0 19 39 40h13q35 0 66 -249l92 -171q19 0 183 184q-52 90 -52 157v66q70 301 301 301z
M545 721v-53q49 -236 236 -236q214 0 262 262q-54 236 -236 236h-39q-223 -46 -223 -209zM768 760h39q21 0 53 -52v-40q0 -20 -53 -52h-39q-20 0 -52 52q0 71 52 92zM558 419l-157 -170q191 -157 341 -157v262q-38 0 -184 65zM834 354v-249h39q90 0 275 105v13
q-146 170 -183 170q-67 -39 -131 -39z" />
    <glyph glyph-name="v" unicode="v" horiz-adv-x="993" 
d="M874 1025l20 -30v-20q0 -14 -111 -111q0 -7 10 -60q0 -108 -191 -322q111 -97 111 -231q0 -213 -271 -251q-169 0 -242 201q0 8 -10 60q0 117 121 231q-170 194 -191 332q0 133 332 171q103 0 291 -81q90 111 131 111zM190 824q11 -91 191 -311l51 10h30l70 -10
q191 203 191 301q0 70 -271 111q-262 -36 -262 -101zM261 261q0 -170 211 -191q171 52 171 171v30q-29 181 -181 181h-20q-148 0 -181 -191zM462 322q50 -17 50 -61q-20 -46 -40 -50h-40q-15 0 -31 30v40q20 41 61 41z" />
    <glyph glyph-name="w" unicode="w" horiz-adv-x="1301" 
d="M650 1025h24q23 -4 23 -24v-400q106 0 212 -118q169 0 201 283q0 59 23 59h24q9 0 35 -36q-45 -388 -247 -388q23 -61 23 -95q-54 -306 -282 -306h-59q-212 0 -271 283v35l11 83q-247 59 -247 400l35 24h12q31 0 71 -236q78 -106 141 -106h24q124 118 212 118v389
q0 17 35 35zM438 330v-59q0 -137 212 -200q197 0 236 247q0 157 -224 212q-224 -50 -224 -200zM638 365h12q71 -7 71 -35v-47q0 -19 -47 -47q-83 0 -83 70q23 54 47 59z" />
    <glyph glyph-name="x" unicode="x" horiz-adv-x="1202" 
d="M119 1018h40l243 -229q104 67 216 67q86 0 202 -67q0 17 216 216h41q27 -5 27 -27v-27l-216 -230q67 -81 67 -215v-41q0 -82 -67 -175q17 0 216 -216v-14q0 -19 -41 -40h-27l-216 202q-113 -67 -215 -67q-60 0 -230 67q0 -17 -229 -229h-27q-27 0 -27 27v40l229 243
q-54 93 -54 162v81q0 38 54 189q-17 0 -229 229v27q4 27 27 27zM348 492q70 -243 243 -243h14q256 43 256 216v81q0 165 -243 216h-13q-211 0 -257 -270zM578 573h67q40 -14 40 -81q-20 -54 -40 -54h-67q-20 0 -41 41v13q8 81 41 81z" />
    <glyph glyph-name="y" unicode="y" 
d="M140 1018l174 -143q71 41 123 41h41q134 -31 144 -31q0 14 123 123h10q15 0 31 -31v-10l-123 -133q61 -87 61 -185v-20q-48 -236 -235 -236v-226q0 -94 143 -112v-31q0 -15 -31 -31h-10q-92 0 -143 82q-107 -72 -144 -72h-20q-21 0 -21 21v20q154 96 154 113v236
q-176 0 -226 266q13 92 62 164q-13 0 -154 154q0 16 41 41zM263 649q38 -195 195 -195q195 34 195 185v41q-47 164 -164 164h-41q-151 0 -185 -195zM468 711q51 -15 51 -72q0 -16 -41 -41h-41q-30 10 -30 61v11q20 41 61 41z" />
    <glyph glyph-name="z" unicode="z" horiz-adv-x="750" 
d="M131 1018h11q202 0 491 -416q21 -91 21 -107q-53 -267 -267 -267h-32q149 -160 224 -160q21 10 33 10l21 -32v-21q0 -18 -54 -32q-164 0 -469 406l-11 107v21q0 209 288 256q-157 171 -288 171v32q0 15 32 32zM174 527v-54q0 -123 192 -181q178 0 213 224q0 142 -202 192
q-203 -41 -203 -181zM355 559h11q64 -7 64 -32v-43q0 -17 -43 -43q-74 0 -74 65q20 48 42 53z" />
  </font>
</defs>
</svg>
