<svg xmlns="http://www.w3.org/2000/svg" viewBox="0 0 361 361"><defs><style>.cls-1{fill:none;stroke:#231f20;stroke-miterlimit:10;}</style></defs><g id="Layer_2" data-name="Layer 2"><g id="Layer_1-2" data-name="Layer 1"><rect class="cls-1" x="216.58" y="72.75" width="71.83" height="71.83"/><rect class="cls-1" x="216.58" y="144.58" width="71.83" height="71.84"/><rect class="cls-1" x="216.58" y="216.42" width="71.83" height="71.83"/><rect class="cls-1" x="216.58" y="0.5" width="71.83" height="72.25"/><rect class="cls-1" x="288.41" y="0.5" width="72.09" height="72.25"/><rect class="cls-1" x="144.75" y="216.42" width="71.83" height="71.83"/><rect class="cls-1" x="288.41" y="72.75" width="72.09" height="71.83"/><rect class="cls-1" x="144.75" y="72.75" width="71.83" height="71.83"/><rect class="cls-1" x="72.92" y="216.42" width="71.83" height="71.83"/><rect class="cls-1" x="144.75" y="144.58" width="71.83" height="71.84"/><rect class="cls-1" x="72.92" y="144.58" width="71.83" height="71.84"/><rect class="cls-1" x="72.92" y="72.75" width="71.83" height="71.83"/><rect class="cls-1" x="288.41" y="288.25" width="72.09" height="72.25"/><rect class="cls-1" x="216.58" y="288.25" width="71.83" height="72.25"/><rect class="cls-1" x="144.75" y="0.5" width="71.83" height="72.25"/><rect class="cls-1" x="72.92" y="288.25" width="71.83" height="72.25"/><rect class="cls-1" x="0.5" y="288.25" width="72.42" height="72.25"/><rect class="cls-1" x="288.41" y="144.58" width="72.09" height="71.84"/><rect class="cls-1" x="288.41" y="216.42" width="72.09" height="71.83"/><rect class="cls-1" x="144.75" y="288.25" width="71.83" height="72.25"/><rect class="cls-1" x="72.92" y="0.5" width="71.83" height="72.25"/><rect class="cls-1" x="0.5" y="216.42" width="72.42" height="71.83"/><rect class="cls-1" x="0.5" y="0.5" width="72.42" height="72.25"/><rect class="cls-1" x="0.5" y="144.58" width="72.42" height="71.84"/><rect class="cls-1" x="0.5" y="72.75" width="72.42" height="71.83"/></g></g></svg>